<svg width="16" height="8" viewBox="0 0 16 8" fill="none" xmlns="http://www.w3.org/2000/svg">
<path fill-rule="evenodd" clip-rule="evenodd" d="M0.42993 0.511935C0.494058 0.437112 0.572302 0.37566 0.660191 0.331092C0.74808 0.286523 0.843889 0.259711 0.942145 0.252188C1.0404 0.244666 1.13918 0.256581 1.23283 0.287251C1.32647 0.317921 1.41316 0.366746 1.48793 0.430935L7.99993 6.01193L14.5119 0.430935C14.6638 0.309064 14.857 0.251007 15.0509 0.269038C15.2447 0.287069 15.424 0.379774 15.5507 0.527556C15.6775 0.675338 15.7418 0.866615 15.7301 1.06095C15.7183 1.25529 15.6315 1.43745 15.4879 1.56894L8.48793 7.56893C8.35201 7.6854 8.17892 7.74941 7.99993 7.74941C7.82094 7.74941 7.64785 7.6854 7.51193 7.56893L0.511931 1.56894C0.361116 1.43945 0.26787 1.25539 0.252682 1.0572C0.237495 0.859004 0.301606 0.662887 0.430931 0.511935" fill="black"/>
</svg>
