<svg width="34" height="34" viewBox="0 0 34 34" fill="none" xmlns="http://www.w3.org/2000/svg">
<g clip-path="url(#clip0_55_945)">
<path d="M7.13803 22.684C5.90601 22.4369 4.76106 21.869 3.81889 21.0376C2.68751 20.0488 1.87476 18.7467 1.4834 17.2959C1.09205 15.8452 1.13967 14.311 1.62025 12.8874C2.10082 11.4637 2.99277 10.2146 4.1833 9.29784C5.37382 8.38112 6.80946 7.83801 8.30865 7.73721C8.41197 7.73915 8.51372 7.71181 8.60215 7.65833C8.69057 7.60486 8.76204 7.52744 8.8083 7.43503C9.49532 5.44571 10.8434 3.75195 12.6279 2.6361C14.4123 1.52025 16.5254 1.04973 18.6147 1.30296C20.704 1.5562 22.6434 2.51789 24.1096 4.02774C25.5759 5.53758 26.4803 7.50435 26.6722 9.60021C26.6894 9.71007 26.7371 9.8129 26.8099 9.89702C26.8827 9.98113 26.9776 10.0432 27.0838 10.0761C28.5444 10.4193 29.8411 11.2576 30.7537 12.4486C31.6663 13.6395 32.1384 15.1097 32.0899 16.6093C32.0414 18.1089 31.4753 19.5454 30.4877 20.6749C29.5001 21.8044 28.1519 22.5572 26.6722 22.8054" stroke="#1BD1C2" stroke-width="2.37931" stroke-linecap="round" stroke-linejoin="round"/>
<path d="M10.7735 26.401C10.0644 26.2773 10.0644 25.2589 10.7735 25.1352C12.0289 24.9156 13.1905 24.3275 14.1108 23.4459C15.031 22.5642 15.6682 21.4287 15.9413 20.1839L15.9889 19.9864C16.1436 19.2845 17.1405 19.2797 17.2999 19.9792L17.3523 20.2077C17.6346 21.4485 18.2778 22.578 19.2007 23.454C20.1237 24.33 21.2853 24.9133 22.5392 25.1305C23.2506 25.2542 23.2506 26.2773 22.5392 26.401C21.2853 26.6182 20.1237 27.2015 19.2007 28.0775C18.2778 28.9535 17.6346 30.083 17.3523 31.3238L17.2999 31.5522C17.1405 32.2517 16.1436 32.247 15.9913 31.5451L15.9461 31.35C15.6728 30.1048 15.0353 28.9691 14.1146 28.0874C13.1939 27.2057 12.0317 26.6178 10.7759 26.3986L10.7735 26.401Z" stroke="#1BD1C2" stroke-width="2.37931" stroke-linecap="round" stroke-linejoin="round"/>
</g>
<defs>
<clipPath id="clip0_55_945">
<rect width="33.3103" height="33.3103" fill="white"/>
</clipPath>
</defs>
</svg>
