<svg width="34" height="34" viewBox="0 0 34 34" fill="none" xmlns="http://www.w3.org/2000/svg">
<g clip-path="url(#clip0_55_949)">
<path d="M16.479 31.4118L9.3411 32.0304L9.95972 24.8925L24.8066 10.1408C25.0282 9.91416 25.2928 9.7341 25.585 9.61116C25.8771 9.48823 26.1909 9.4249 26.5078 9.4249C26.8248 9.4249 27.1385 9.48823 27.4307 9.61116C27.7228 9.7341 27.9874 9.91416 28.209 10.1408L31.2308 13.1863C31.4538 13.4075 31.6308 13.6706 31.7516 13.9606C31.8724 14.2505 31.9346 14.5615 31.9346 14.8756C31.9346 15.1897 31.8724 15.5007 31.7516 15.7906C31.6308 16.0806 31.4538 16.3437 31.2308 16.5649L16.479 31.4118ZM2.00331 9.45078C1.16817 9.30564 1.16817 8.10647 2.00331 7.96133C3.48151 7.70277 4.84944 7.01049 5.93318 5.9725C7.01693 4.93451 7.76754 3.5977 8.08958 2.13202L8.13955 1.90123C8.32038 1.07799 9.49576 1.07085 9.6861 1.89647L9.74558 2.16295C10.0773 3.62307 10.8336 4.95245 11.9191 5.98378C13.0046 7.01512 14.3709 7.70233 15.8461 7.95895C16.686 8.10171 16.686 9.30802 15.8461 9.45554C14.3708 9.71156 13.0042 10.3982 11.9183 11.4291C10.8323 12.4601 10.0755 13.7892 9.7432 15.2492L9.68134 15.518C9.49338 16.3413 8.318 16.3365 8.13717 15.5109L8.08958 15.2801C7.76722 13.8138 7.0159 12.4765 5.93124 11.4384C4.84658 10.4004 3.47761 9.70848 1.99855 9.45078H2.00331Z" stroke="#1BD1C2" stroke-width="2.37931" stroke-linecap="round" stroke-linejoin="round"/>
</g>
<defs>
<clipPath id="clip0_55_949">
<rect width="33.3103" height="33.3103" fill="white"/>
</clipPath>
</defs>
</svg>
