<svg width="17" height="17" viewBox="0 0 17 17" fill="none" xmlns="http://www.w3.org/2000/svg">
<path d="M8.44812 4.23257C6.0505 4.23257 4.11657 6.13628 4.11657 8.49643C4.11657 10.8566 6.0505 12.7603 8.44812 12.7603C10.8457 12.7603 12.7797 10.8566 12.7797 8.49643C12.7797 6.13628 10.8457 4.23257 8.44812 4.23257ZM8.44812 11.2685C6.89871 11.2685 5.63204 10.0253 5.63204 8.49643C5.63204 6.96753 6.89494 5.72436 8.44812 5.72436C10.0013 5.72436 11.2642 6.96753 11.2642 8.49643C11.2642 10.0253 9.99752 11.2685 8.44812 11.2685ZM13.9672 4.05815C13.9672 4.61108 13.5148 5.05268 12.9568 5.05268C12.3951 5.05268 11.9465 4.60737 11.9465 4.05815C11.9465 3.50893 12.3989 3.06362 12.9568 3.06362C13.5148 3.06362 13.9672 3.50893 13.9672 4.05815ZM16.836 5.06753C16.7719 3.7353 16.4628 2.55522 15.4713 1.58296C14.4836 0.610693 13.2848 0.306396 11.9315 0.2396C10.5366 0.16167 6.35585 0.16167 4.96101 0.2396C3.61141 0.302686 2.4126 0.606982 1.42113 1.57925C0.42966 2.55151 0.124303 3.73159 0.0564453 5.06382C-0.0227214 6.43686 -0.0227214 10.5523 0.0564453 11.9253C0.120533 13.2576 0.42966 14.4376 1.42113 15.4099C2.4126 16.3822 3.60764 16.6865 4.96101 16.7533C6.35585 16.8312 10.5366 16.8312 11.9315 16.7533C13.2848 16.6902 14.4836 16.3859 15.4713 15.4099C16.459 14.4376 16.7682 13.2576 16.836 11.9253C16.9152 10.5523 16.9152 6.44057 16.836 5.06753ZM15.034 13.3986C14.74 14.1259 14.1707 14.6863 13.4281 14.9794C12.316 15.4136 9.67708 15.3134 8.44812 15.3134C7.21915 15.3134 4.57649 15.4099 3.46815 14.9794C2.72926 14.69 2.16002 14.1296 1.8622 13.3986C1.42113 12.3039 1.52291 9.7062 1.52291 8.49643C1.52291 7.28667 1.4249 4.6853 1.8622 3.59429C2.15625 2.86694 2.72549 2.30659 3.46815 2.01343C4.58026 1.57925 7.21915 1.67944 8.44812 1.67944C9.67708 1.67944 12.3197 1.58296 13.4281 2.01343C14.167 2.30288 14.7362 2.86323 15.034 3.59429C15.4751 4.68901 15.3733 7.28667 15.3733 8.49643C15.3733 9.7062 15.4751 12.3076 15.034 13.3986Z" fill="#3E4757"/>
</svg>
