<svg width="17" height="18" viewBox="0 0 17 18" fill="none" xmlns="http://www.w3.org/2000/svg">
<path fill-rule="evenodd" clip-rule="evenodd" d="M2.84701 0.989746C2.26961 0.989746 1.71586 1.21912 1.30757 1.6274C0.899293 2.03568 0.669922 2.58943 0.669922 3.16683C0.669922 3.74423 0.899293 4.29798 1.30757 4.70626C1.71586 5.11454 2.26961 5.34391 2.84701 5.34391C3.4244 5.34391 3.97815 5.11454 4.38644 4.70626C4.79472 4.29798 5.02409 3.74423 5.02409 3.16683C5.02409 2.58943 4.79472 2.03568 4.38644 1.6274C3.97815 1.21912 3.4244 0.989746 2.84701 0.989746ZM1.85742 3.16683C1.85742 2.90438 1.96168 2.65267 2.14726 2.46709C2.33285 2.28151 2.58455 2.17725 2.84701 2.17725C3.10946 2.17725 3.36116 2.28151 3.54675 2.46709C3.73233 2.65267 3.83659 2.90438 3.83659 3.16683C3.83659 3.42928 3.73233 3.68099 3.54675 3.86657C3.36116 4.05215 3.10946 4.15641 2.84701 4.15641C2.58455 4.15641 2.33285 4.05215 2.14726 3.86657C1.96168 3.68099 1.85742 3.42928 1.85742 3.16683ZM0.669922 6.3335C0.669922 6.17602 0.732477 6.025 0.843827 5.91365C0.955177 5.8023 1.1062 5.73975 1.26367 5.73975H4.43034C4.58781 5.73975 4.73883 5.8023 4.85018 5.91365C4.96153 6.025 5.02409 6.17602 5.02409 6.3335V16.6252C5.02409 16.7826 4.96153 16.9337 4.85018 17.045C4.73883 17.1564 4.58781 17.2189 4.43034 17.2189H1.26367C1.1062 17.2189 0.955177 17.1564 0.843827 17.045C0.732477 16.9337 0.669922 16.7826 0.669922 16.6252V6.3335ZM1.85742 6.92725V16.0314H3.83659V6.92725H1.85742ZM6.21159 6.3335C6.21159 6.17602 6.27415 6.025 6.3855 5.91365C6.49684 5.8023 6.64787 5.73975 6.80534 5.73975H9.97201C10.1295 5.73975 10.2805 5.8023 10.3919 5.91365C10.5032 6.025 10.5658 6.17602 10.5658 6.3335V6.67708L10.9101 6.52904C11.5039 6.27539 12.1338 6.11645 12.7769 6.058C14.9738 5.8585 16.8991 7.58433 16.8991 9.801V16.6252C16.8991 16.7826 16.8365 16.9337 16.7252 17.045C16.6138 17.1564 16.4628 17.2189 16.3053 17.2189H13.1387C12.9812 17.2189 12.8302 17.1564 12.7188 17.045C12.6075 16.9337 12.5449 16.7826 12.5449 16.6252V11.0835C12.5449 10.821 12.4407 10.5693 12.2551 10.3838C12.0695 10.1982 11.8178 10.0939 11.5553 10.0939C11.2929 10.0939 11.0412 10.1982 10.8556 10.3838C10.67 10.5693 10.5658 10.821 10.5658 11.0835V16.6252C10.5658 16.7826 10.5032 16.9337 10.3919 17.045C10.2805 17.1564 10.1295 17.2189 9.97201 17.2189H6.80534C6.64787 17.2189 6.49684 17.1564 6.3855 17.045C6.27415 16.9337 6.21159 16.7826 6.21159 16.6252V6.3335ZM7.39909 6.92725V16.0314H9.37826V11.0835C9.37826 10.5061 9.60763 9.95235 10.0159 9.54407C10.4242 9.13579 10.9779 8.90641 11.5553 8.90641C12.1327 8.90641 12.6865 9.13579 13.0948 9.54407C13.5031 9.95235 13.7324 10.5061 13.7324 11.0835V16.0314H15.7116V9.801C15.7116 8.29366 14.3966 7.103 12.8853 7.24075C12.3661 7.28785 11.8575 7.41608 11.378 7.62075L10.2063 8.12346C10.116 8.16227 10.0174 8.17803 9.9194 8.16932C9.82143 8.1606 9.72716 8.12769 9.64506 8.07353C9.56296 8.01937 9.4956 7.94567 9.44903 7.85904C9.40246 7.7724 9.37814 7.67556 9.37826 7.57721V6.92725H7.39909Z" fill="#3E4757"/>
</svg>
