<svg version="1.2" xmlns="http://www.w3.org/2000/svg" viewBox="0 0 95 95" width="95" height="95">
	<title>Logo</title>
	<defs>
		<clipPath clipPathUnits="userSpaceOnUse" id="cp1">
			<path d="m30 0h358c16.57 0 30 13.43 30 30v35c0 16.57-13.43 30-30 30h-358c-16.57 0-30-13.43-30-30v-35c0-16.57 13.43-30 30-30z"/>
		</clipPath>
		<linearGradient id="g1" x2="1" gradientUnits="userSpaceOnUse" gradientTransform="matrix(19.225,0,0,19.257,327.514,27.067)">
			<stop offset="0" stop-color="#2974e9"/>
			<stop offset="1" stop-color="#1ad7be"/>
		</linearGradient>
		<linearGradient id="g2" x2="1" gradientUnits="userSpaceOnUse" gradientTransform="matrix(6.468,0,0,6.476,325.544,19.605)">
			<stop offset="0" stop-color="#2974e9"/>
			<stop offset="1" stop-color="#1ad7be"/>
		</linearGradient>
		<linearGradient id="g3" x2="1" gradientUnits="userSpaceOnUse" gradientTransform="matrix(9.527,0,0,9.54,29.333,26.299)">
			<stop offset="0" stop-color="#2974e9"/>
			<stop offset="1" stop-color="#1ad7be"/>
		</linearGradient>
		<linearGradient id="g4" x2="1" gradientUnits="userSpaceOnUse" gradientTransform="matrix(3.205,0,0,3.21,28.752,22.604)">
			<stop offset="0" stop-color="#2974e9"/>
			<stop offset="1" stop-color="#1ad7be"/>
		</linearGradient>
		<linearGradient id="g5" x2="1" gradientUnits="userSpaceOnUse" gradientTransform="matrix(21.235,0,0,21.262,35.679,40.39)">
			<stop offset="0" stop-color="#2974e9"/>
			<stop offset="1" stop-color="#1ad7be"/>
		</linearGradient>
		<linearGradient id="g6" x2="1" gradientUnits="userSpaceOnUse" gradientTransform="matrix(31.23,0,0,30.996,31.255,70.213)">
			<stop offset="0" stop-color="#2974e9"/>
			<stop offset="1" stop-color="#1ad7be"/>
		</linearGradient>
		<linearGradient id="g7" x2="1" gradientUnits="userSpaceOnUse" gradientTransform="matrix(93.723,0,0,93.787,0,46.922)">
			<stop offset="0" stop-color="#2974e9"/>
			<stop offset="1" stop-color="#1ad7be"/>
		</linearGradient>
	</defs>
	<style>
		.s0 { fill: #1e3947 } 
		.s1 { fill: url(#g1) } 
		.s2 { fill: url(#g2) } 
		.s3 { fill: url(#g3) } 
		.s4 { fill: url(#g4) } 
		.s5 { fill: url(#g5) } 
		.s6 { fill: url(#g6) } 
		.s7 { fill: url(#g7) } 
		.s8 { fill: #0b1928 } 
	</style>
	<g id="Clip-Path" clip-path="url(#cp1)">
		<g>
			<path fill-rule="evenodd" class="s0" d="m153.5 78.6l-10-14.3q-0.9 0.1-1.8 0.1h-11.1v14.2h-9.1v-48.9h20.2c12.8 0 20.8 6.5 20.8 17.4 0 7.4-3.8 12.9-10.4 15.4l11.2 16.1zm-12.3-41.2h-10.6v19.5h10.6c8 0 12.1-3.7 12.1-9.8 0-6.2-4.1-9.7-12.1-9.7z"/>
			<path fill-rule="evenodd" class="s0" d="m206.7 62.3h-29.3c1.1 5.4 5.6 8.9 12.2 8.9 1.8 0.1 3.7-0.2 5.4-0.9 1.8-0.7 3.4-1.8 4.7-3.1l4.7 5.4c-3.4 4-8.6 6.1-15.1 6.1-12.5 0-20.6-8.1-20.6-19.2 0-11.1 8.2-19.1 19.3-19.1 10.9 0 18.9 7.6 18.9 19.3 0 0.7-0.1 1.7-0.2 2.6zm-29.3-5.8h21.1c-0.7-5.4-4.8-9.1-10.5-9.1-2.6-0.1-5.1 0.8-7.1 2.4-2 1.7-3.2 4.1-3.5 6.7z"/>
			<path class="s0" d="m212.2 59.5c0-11.2 8.4-19.1 20.2-19.1 7.2 0 13 3 15.9 8.6l-6.7 4c-1-1.6-2.3-3-4-3.9-1.6-0.9-3.4-1.3-5.3-1.3-6.5 0-11.3 4.5-11.3 11.7 0 7.2 4.9 11.7 11.3 11.7 1.9 0 3.7-0.5 5.3-1.4 1.7-0.9 3-2.2 4-3.8l6.7 3.9c-2.9 5.6-8.7 8.7-15.9 8.7-11.8 0-20.2-7.9-20.2-19.1z"/>
			<path class="s0" d="m277.4 40.9v8.3q-1-0.2-2-0.2c-6.6 0-10.8 3.9-10.8 11.5v18.1h-8.7v-37.3h8.3v5.4c2.5-3.9 7-5.8 13.2-5.8z"/>
			<path class="s0" d="m321.3 40.8v37.3h-8.3v-4.7c-2.8 3.4-7.2 5.2-12 5.2-9.6 0-16.1-5.2-16.1-16.5v-21.3h8.7v20.1c0 6.8 3.3 10 8.8 10 6 0 10.2-3.7 10.2-11.2v-18.9z"/>
			<path class="s0" d="m341.5 41.3h-8.7v37.3h8.7z"/>
			<path class="s0" d="m375.4 76.1c-2.1 1.7-5.3 2.5-8.4 2.5-8.2 0-12.9-4.3-12.9-12.6v-17.9h-6.1v-7h6.1v-8.6h8.8v8.6h10v7h-10v17.8c0 3.6 1.8 5.6 5.1 5.6 1.8 0 3.5-0.6 4.9-1.6z"/>
			<path fill-rule="evenodd" class="s0" d="m378.3 59.5c0-11.2 8.3-19.1 19.8-19.1 11.6 0 19.9 7.9 19.9 19.1 0 11.2-8.3 19.1-19.9 19.1-11.5 0-19.8-7.9-19.8-19.1zm30.9 0c0-7.2-4.7-11.7-11.1-11.7-6.4 0-11 4.5-11 11.7 0 7.1 4.7 11.7 11 11.7 6.3 0 11.1-4.6 11.1-11.7z"/>
			<path class="s1" d="m337.1 17.4l0.8 2.9c0.3 1.4 1.1 2.8 2.2 3.8 1 1.1 2.4 1.9 3.8 2.2l2.8 0.8-2.8 0.7c-1.4 0.4-2.8 1.1-3.8 2.2-1.1 1.1-1.9 2.4-2.2 3.9l-0.8 2.8-0.7-2.8c-0.4-1.5-1.1-2.8-2.2-3.9-1.1-1.1-2.4-1.8-3.9-2.2l-2.8-0.7 2.8-0.8c1.5-0.3 2.8-1.1 3.9-2.2 1.1-1 1.8-2.4 2.2-3.8z"/>
			<path class="s2" d="m328.8 16.4l0.2 0.9q0.2 0.8 0.8 1.3 0.5 0.6 1.3 0.8l0.9 0.2-0.9 0.3q-0.8 0.1-1.3 0.7-0.6 0.5-0.8 1.3l-0.2 0.9-0.3-0.9q-0.2-0.8-0.7-1.3-0.6-0.6-1.3-0.7l-1-0.3 1-0.2q0.7-0.2 1.3-0.8 0.5-0.5 0.7-1.3z"/>
			<path class="s3" d="m34.1 21.5l0.4 1.4c0.1 0.8 0.5 1.4 1 2 0.6 0.5 1.2 0.9 2 1.1l1.4 0.3-1.4 0.4c-0.8 0.2-1.4 0.5-2 1.1-0.5 0.5-0.9 1.2-1 1.9l-0.4 1.4-0.4-1.4c-0.2-0.7-0.5-1.4-1.1-1.9-0.5-0.6-1.1-0.9-1.9-1.1l-1.4-0.4 1.4-0.3c0.8-0.2 1.4-0.6 1.9-1.1 0.6-0.6 0.9-1.2 1.1-2z"/>
			<path class="s4" d="m30.4 21l0.1 0.5q0.1 0.3 0.3 0.6 0.3 0.3 0.7 0.4l0.5 0.1-0.5 0.1q-0.4 0.1-0.7 0.4-0.2 0.3-0.3 0.6l-0.1 0.5-0.2-0.5q-0.1-0.3-0.3-0.6-0.3-0.3-0.7-0.4l-0.4-0.1 0.4-0.1q0.4-0.1 0.7-0.4 0.2-0.3 0.3-0.6z"/>
			<path class="s5" d="m46.3 51c5.9 0 10.6-4.7 10.6-10.6 0-5.9-4.7-10.6-10.6-10.6-5.9 0-10.6 4.7-10.6 10.6 0 5.9 4.7 10.6 10.6 10.6z"/>
			<path class="s0" d="m70.1 54.7c3.4 0 6.2-2.8 6.2-6.2 0-3.5-2.8-6.3-6.2-6.3-3.4 0-6.2 2.8-6.2 6.3 0 3.4 2.8 6.2 6.2 6.2z"/>
			<path class="s0" d="m22.7 54.7c3.4 0 6.2-2.8 6.2-6.2 0-3.5-2.8-6.3-6.2-6.3-3.4 0-6.2 2.8-6.2 6.3 0 3.4 2.8 6.2 6.2 6.2z"/>
			<path class="s6" d="m62.5 70.4v15.3h-31.2v-15.3c0-4.2 1.6-8.2 4.5-11.1 3-2.9 6.9-4.6 11.1-4.6 2 0 4.1 0.4 5.9 1.2 1.9 0.8 3.7 2 5.1 3.4 1.5 1.5 2.6 3.2 3.4 5.1 0.8 1.9 1.2 3.9 1.2 6z"/>
			<path class="s0" d="m79.2 73.4q-1.3 1.6-2.8 3.1c-2.9 2.9-6.2 5.3-9.9 7.3v-13.4c0-3.3-0.8-6.6-2.4-9.5 4.1 0.1 7.9 1.7 10.8 4.6q1.2 1.2 2.1 2.7c1 1.6 1.8 3.3 2.2 5.2z"/>
			<path class="s0" d="m29.6 61c-1.6 2.8-2.4 6.1-2.4 9.4v13.4c-3.6-1.9-7-4.4-9.9-7.3q-1.8-1.9-3.4-4c0.4-1.8 1.2-3.5 2.3-5 1.5-2 3.4-3.7 5.6-4.8 2.2-1.2 4.7-1.8 7.2-1.8q0.3 0 0.6 0.1z"/>
			<path class="s0" d="m74.9 18.8l1.5-1.4c-3.9-3.9-8.5-7-13.6-9.1-5-2.1-10.4-3.2-15.9-3.2-5.5 0-10.9 1.1-16 3.2-5.1 2.1-9.7 5.2-13.5 9.1-3.9 3.9-7 8.5-9.1 13.5-2.1 5.1-3.2 10.5-3.2 16 0 9.3 3.1 18.3 8.8 25.6q1.6 2.1 3.5 4c2.9 2.9 6.2 5.3 9.8 7.3q2 1 4.1 1.9h0.1l0.7-1.9-0.8 1.9c4.9 2 10.2 3 15.5 3 5.4 0 10.7-1 15.6-3q2.1-0.9 4.1-1.9c3.6-1.9 6.9-4.4 9.8-7.3q1.5-1.5 2.8-3.1c6.1-7.5 9.5-16.8 9.4-26.5 0-5.5-1-10.9-3.1-16-2.1-5-5.2-9.6-9.1-13.5l-1.4 1.5-1.5 1.4c3.5 3.5 6.3 7.7 8.2 12.2 1.8 4.6 2.8 9.5 2.8 14.4 0 8.7-3 17.1-8.5 23.9q-1.2 1.4-2.5 2.7c-2.6 2.7-5.6 4.9-8.9 6.6q-1.7 1-3.6 1.8c-4.5 1.8-9.2 2.7-14 2.7-4.8 0-9.6-0.9-14.1-2.7l-0.1-0.1-0.7 2 0.8-1.9q-1.8-0.8-3.6-1.7c-3.3-1.8-6.3-4-8.9-6.6q-1.7-1.7-3.2-3.6c-5.1-6.6-7.8-14.7-7.8-23 0-5 1-9.9 2.9-14.4 1.8-4.6 4.6-8.8 8.1-12.3h0.1-0.1c3.5-3.5 7.6-6.2 12.2-8.1 4.6-1.9 9.5-2.9 14.4-2.9 4.9 0 9.8 1 14.4 2.9 4.5 1.9 8.7 4.6 12.2 8.1z"/>
			<path class="s7" d="m10.4 75q0.2-0.2 0.2-0.5 0-0.3-0.1-0.5c-5.9-7.8-9-17.3-9-27.1 0-5.9 1.2-11.8 3.5-17.4 2.2-5.5 5.6-10.5 9.8-14.7h0.1c4.2-4.2 9.1-7.6 14.6-9.8 5.5-2.3 11.4-3.5 17.3-3.5 6 0 11.9 1.2 17.4 3.5 5.5 2.3 10.5 5.6 14.7 9.8 4.2 4.2 7.6 9.2 9.8 14.7 2.3 5.6 3.5 11.5 3.5 17.4 0 10.5-3.6 20.7-10.3 28.8q-1.4 1.7-3 3.3c-3.2 3.2-6.8 5.9-10.7 8q-2.1 1.1-4.4 2c-5.4 2.2-11.2 3.3-17 3.3-5.8 0-11.5-1.1-16.9-3.2q-2.2-0.9-4.3-2.1-1.8-0.9-3.4-2-0.2-0.1-0.5-0.1-0.3 0-0.4 0.2-0.2 0.2-0.2 0.3-0.1 0.2-0.1 0.3 0.1 0.2 0.2 0.4 0 0.1 0.2 0.2 1.7 1.1 3.4 2.1 2.2 1.2 4.6 2.1c5.6 2.2 11.5 3.4 17.5 3.4 6 0 11.9-1.2 17.5-3.4q2.3-0.9 4.5-2.1c4.1-2.2 7.8-5 11.1-8.3q1.6-1.6 3.1-3.4c6.9-8.4 10.6-18.9 10.6-29.7 0-6.2-1.2-12.3-3.6-17.9-2.3-5.7-5.8-10.9-10.1-15.2-4.4-4.4-9.6-7.9-15.2-10.2-5.7-2.4-11.8-3.6-18-3.6-6.1 0-12.2 1.2-17.9 3.6-5.7 2.3-10.8 5.8-15.2 10.2-4.2 4.2-7.7 9.2-10 14.8-2.5 5.7-3.7 11.9-3.7 18.2 0 10.1 3.2 19.9 9.3 28q0.1 0.1 0.2 0.2 0.2 0.1 0.3 0.1 0.2 0 0.3-0.1 0.2 0 0.3-0.1z"/>
			<path class="s8" d="m1.8 89.3l15.2-15.2 4.7 4.7-15.2 15.2c-0.6 0.7-1.4 1-2.3 1-0.9 0-1.7-0.3-2.4-1q-0.4-0.4-0.7-1-0.2-0.6-0.2-1.3 0-0.7 0.2-1.3 0.3-0.6 0.7-1.1z"/>
			<path class="s0" d="m1.8 89.3l15.2-15.2 4.7 4.7-15.2 15.2c-0.6 0.7-1.4 1-2.3 1-0.9 0-1.7-0.3-2.4-1q-0.4-0.4-0.7-1-0.2-0.6-0.2-1.3 0-0.7 0.2-1.3 0.3-0.6 0.7-1.1z"/>
		</g>
	</g>
</svg>