<svg width="43" height="43" viewBox="0 0 43 43" fill="none" xmlns="http://www.w3.org/2000/svg">
<g opacity="0.3">
<path d="M18.5208 36.368L19.5073 40.3056L20.4827 36.3688L20.4829 36.368C21.2661 33.2299 22.8548 30.3645 25.0844 28.0726C27.314 25.7806 30.1025 24.1462 33.1589 23.3423C33.159 23.3423 33.1592 23.3422 33.1593 23.3422L37.0546 22.3082L33.1583 21.2739C33.1583 21.2739 33.1582 21.2739 33.1582 21.2739C30.1023 20.4636 27.3151 18.825 25.0862 16.5307C22.8575 14.2365 21.2684 11.3705 20.4829 8.23187L20.4827 8.23072L19.5073 4.29396L18.5208 8.23187C17.7353 11.3705 16.1463 14.2365 13.9175 16.5307C11.6886 18.825 8.90145 20.4636 5.84554 21.2739C5.84549 21.2739 5.84545 21.2739 5.84541 21.2739L1.94907 22.3082L5.84443 23.3422C5.84456 23.3422 5.84469 23.3423 5.84482 23.3423C8.90122 24.1462 11.6898 25.7806 13.9193 28.0726C16.1488 30.3645 17.7375 33.2297 18.5208 36.3677C18.5208 36.3678 18.5208 36.3679 18.5208 36.368Z" stroke="url(#paint0_linear_55_1293)"/>
<path d="M31.9384 6.72263L31.8539 6.74475L31.9384 6.76687L31.9408 6.7675C33.0256 7.05707 34.0133 7.64051 34.8016 8.45519C35.5893 9.26923 36.1491 10.2844 36.4245 11.3942L36.4397 11.453L36.4539 11.3958L36.4541 11.3952C36.7325 10.2834 37.2957 9.26715 38.0868 8.45283C38.878 7.63843 39.8682 7.05571 40.9552 6.76731L40.9559 6.76714L41.0407 6.74475L40.9559 6.72236L40.9552 6.72219C39.8683 6.43379 38.878 5.85119 38.0868 5.03677C37.2957 4.22245 36.7325 3.20607 36.4541 2.09426L36.4539 2.09369L36.4397 2.03651L36.4245 2.09532C36.1491 3.2051 35.5893 4.22027 34.8016 5.03431C34.0133 5.84899 33.0256 6.43243 31.9408 6.72201L31.9384 6.72263Z" stroke="url(#paint1_linear_55_1293)"/>
</g>
<defs>
<linearGradient id="paint0_linear_55_1293" x1="22.5875" y1="13.7821" x2="-3.39051" y2="38.8703" gradientUnits="userSpaceOnUse">
<stop stop-color="#1F67E7"/>
<stop offset="1" stop-color="#1AD7BE"/>
</linearGradient>
<linearGradient id="paint1_linear_55_1293" x1="37.4775" y1="3.88286" x2="28.7487" y2="12.3232" gradientUnits="userSpaceOnUse">
<stop stop-color="#1F67E7"/>
<stop offset="1" stop-color="#1AD7BE"/>
</linearGradient>
</defs>
</svg>
