<svg width="34" height="34" viewBox="0 0 34 34" fill="none" xmlns="http://www.w3.org/2000/svg">
<g clip-path="url(#clip0_55_940)">
<path d="M6.59082 19.7145C7.3667 18.6753 8.37455 17.8318 9.53406 17.251C10.6936 16.6702 11.9727 16.3682 13.2695 16.3691C15.2158 16.3691 17.0051 17.0353 18.4231 18.1536" stroke="#1BD1C2" stroke-width="2.37931" stroke-linecap="round" stroke-linejoin="round"/>
<path d="M12.0775 25.2892H3.74992C3.11888 25.2892 2.5137 25.0385 2.06749 24.5923C1.62128 24.1461 1.37061 23.5409 1.37061 22.9099V3.8754C1.37061 3.24437 1.62128 2.63918 2.06749 2.19298C2.5137 1.74677 3.11888 1.49609 3.74992 1.49609H22.7844C23.4154 1.49609 24.0206 1.74677 24.4668 2.19298C24.913 2.63918 25.1637 3.24437 25.1637 3.8754V11.0133" stroke="#1BD1C2" stroke-width="2.37931" stroke-linecap="round" stroke-linejoin="round"/>
<path d="M13.2672 12.7978C13.7359 12.7978 14.2 12.7055 14.633 12.5262C15.066 12.3468 15.4594 12.0839 15.7908 11.7525C16.1223 11.4211 16.3851 11.0277 16.5645 10.5947C16.7439 10.1617 16.8362 9.69756 16.8362 9.22888C16.8362 8.76019 16.7439 8.2961 16.5645 7.86309C16.3851 7.43009 16.1223 7.03665 15.7908 6.70524C15.4594 6.37383 15.066 6.11094 14.633 5.93158C14.2 5.75223 13.7359 5.65991 13.2672 5.65991C12.3207 5.65991 11.4129 6.03593 10.7436 6.70524C10.0743 7.37455 9.69824 8.28233 9.69824 9.22888C9.69824 10.1754 10.0743 11.0832 10.7436 11.7525C11.4129 12.4218 12.3207 12.7978 13.2672 12.7978ZM17.4643 25.1322C16.6292 24.9871 16.6292 23.7879 17.4643 23.6427C18.9425 23.3842 20.3104 22.6919 21.3942 21.6539C22.4779 20.6159 23.2285 19.2791 23.5506 17.8134L23.6006 17.5826C23.7814 16.757 24.9568 16.7523 25.1447 17.5755L25.2066 17.8444C25.5389 19.3044 26.2957 20.6335 27.3816 21.6644C28.4676 22.6953 29.8342 23.382 31.3095 23.638C32.1494 23.7855 32.1494 24.9894 31.3095 25.1369C29.8342 25.393 28.4676 26.0796 27.3816 27.1106C26.2957 28.1415 25.5389 29.4706 25.2066 30.9306L25.1447 31.1994C24.9568 32.0227 23.7814 32.0179 23.6006 31.1923L23.5506 30.9615C23.2285 29.4958 22.4779 28.159 21.3942 27.121C20.3104 26.083 18.9425 25.3907 17.4643 25.1322Z" stroke="#1BD1C2" stroke-width="2.37931" stroke-linecap="round" stroke-linejoin="round"/>
</g>
<defs>
<clipPath id="clip0_55_940">
<rect width="33.3103" height="33.3103" fill="white"/>
</clipPath>
</defs>
</svg>
