<svg width="24" height="24" viewBox="0 0 24 24" fill="none" xmlns="http://www.w3.org/2000/svg">
<path fill-rule="evenodd" clip-rule="evenodd" d="M9.59224 3.19997C9.43441 3.34162 9.26917 3.47481 9.09724 3.59897C8.79924 3.79897 8.46424 3.93697 8.11224 4.00697C7.95924 4.03697 7.79924 4.04997 7.48024 4.07497C6.67924 4.13897 6.27824 4.17097 5.94424 4.28897C5.56223 4.42361 5.21527 4.64218 4.92886 4.92859C4.64245 5.21499 4.42389 5.56196 4.28924 5.94397C4.17124 6.27797 4.13924 6.67897 4.07524 7.47997C4.06375 7.69169 4.04106 7.90265 4.00724 8.11197C3.93724 8.46397 3.79924 8.79897 3.59924 9.09697C3.51224 9.22697 3.40824 9.34897 3.20024 9.59197C2.67924 10.204 2.41824 10.51 2.26524 10.83C1.91224 11.57 1.91224 12.43 2.26524 13.17C2.41824 13.49 2.67924 13.796 3.20024 14.408C3.40824 14.651 3.51224 14.773 3.59924 14.903C3.79924 15.201 3.93724 15.536 4.00724 15.888C4.03724 16.041 4.05024 16.201 4.07524 16.52C4.13924 17.321 4.17124 17.722 4.28924 18.056C4.42389 18.438 4.64245 18.7849 4.92886 19.0713C5.21527 19.3578 5.56223 19.5763 5.94424 19.711C6.27824 19.829 6.67924 19.861 7.48024 19.925C7.79924 19.95 7.95924 19.963 8.11224 19.993C8.46424 20.063 8.79924 20.202 9.09724 20.401C9.22724 20.488 9.34924 20.592 9.59224 20.8C10.2042 21.321 10.5102 21.582 10.8302 21.735C11.5702 22.088 12.4302 22.088 13.1702 21.735C13.4902 21.582 13.7962 21.321 14.4082 20.8C14.6512 20.592 14.7732 20.488 14.9032 20.401C15.2012 20.201 15.5362 20.063 15.8882 19.993C16.0412 19.963 16.2012 19.95 16.5202 19.925C17.3212 19.861 17.7222 19.829 18.0562 19.711C18.4382 19.5763 18.7852 19.3578 19.0716 19.0713C19.358 18.7849 19.5766 18.438 19.7112 18.056C19.8292 17.722 19.8612 17.321 19.9252 16.52C19.9502 16.201 19.9632 16.041 19.9932 15.888C20.0632 15.536 20.2022 15.201 20.4012 14.903C20.4882 14.773 20.5922 14.651 20.8002 14.408C21.3212 13.796 21.5822 13.49 21.7352 13.17C22.0882 12.43 22.0882 11.57 21.7352 10.83C21.5822 10.51 21.3212 10.204 20.8002 9.59197C20.6586 9.43413 20.5254 9.2689 20.4012 9.09697C20.2011 8.79902 20.0624 8.46416 19.9932 8.11197C19.9594 7.90265 19.9367 7.69169 19.9252 7.47997C19.8612 6.67897 19.8292 6.27797 19.7112 5.94397C19.5766 5.56196 19.358 5.21499 19.0716 4.92859C18.7852 4.64218 18.4382 4.42361 18.0562 4.28897C17.7222 4.17097 17.3212 4.13897 16.5202 4.07497C16.3085 4.06348 16.0976 4.04079 15.8882 4.00697C15.536 3.93779 15.2012 3.79908 14.9032 3.59897C14.7313 3.47481 14.5661 3.34162 14.4082 3.19997C13.7962 2.67897 13.4902 2.41797 13.1702 2.26497C12.805 2.09014 12.4052 1.99939 12.0002 1.99939C11.5953 1.99939 11.1955 2.09014 10.8302 2.26497C10.5102 2.41797 10.2042 2.67897 9.59224 3.19997ZM16.3732 9.86297C16.5146 9.70828 16.5908 9.50504 16.5861 9.29556C16.5814 9.08608 16.496 8.88649 16.3479 8.73833C16.1997 8.59016 16.0001 8.50484 15.7906 8.50012C15.5812 8.49539 15.3779 8.57163 15.2232 8.71297L10.3732 13.563L8.77724 11.968C8.62255 11.8266 8.41931 11.7504 8.20983 11.7551C8.00035 11.7598 7.80076 11.8452 7.6526 11.9933C7.50443 12.1415 7.41911 12.3411 7.41439 12.5506C7.40966 12.76 7.4859 12.9633 7.62724 13.118L9.79724 15.288C9.94984 15.4403 10.1566 15.5258 10.3722 15.5258C10.5878 15.5258 10.7946 15.4403 10.9472 15.288L16.3732 9.86297Z" fill="#3FD028"/>
</svg>
