<svg width="418" height="95" viewBox="0 0 418 95" fill="none" xmlns="http://www.w3.org/2000/svg">
<g clip-path="url(#clip0_55_1438)">
<path d="M153.544 78.6371L143.548 64.2954C142.923 64.3561 142.295 64.3804 141.667 64.3681H130.63V78.6371H121.546V29.6698H141.667C154.521 29.6698 162.482 36.2424 162.482 47.0836C162.482 54.5051 158.711 59.9621 152.074 62.5491L163.321 78.6371H153.544ZM141.247 37.3662H130.63V56.882H141.247C149.208 56.882 153.358 53.244 153.358 47.0836C153.358 40.9233 149.208 37.3662 141.247 37.3662Z" fill="#1E3947"/>
<path d="M206.711 62.2662H177.443C178.484 67.7232 183.03 71.2237 189.554 71.2237C191.43 71.3002 193.302 70.9798 195.047 70.2833C196.791 69.5868 198.369 68.5299 199.679 67.1815L204.362 72.5657C201.011 76.5513 195.771 78.6533 189.344 78.6533C176.837 78.6533 168.731 70.6093 168.731 59.4851C168.731 48.361 176.902 40.3897 188.012 40.3897C198.912 40.3897 206.881 48.0134 206.881 59.6953C206.856 60.3502 206.784 61.4254 206.711 62.2662ZM177.37 56.4616H198.524C197.822 51.0773 193.68 47.3666 187.971 47.3666C185.387 47.2754 182.863 48.1597 180.9 49.8443C178.936 51.5289 177.676 53.8907 177.37 56.4616Z" fill="#1E3947"/>
<path d="M212.169 59.469C212.169 48.2802 220.55 40.3736 232.354 40.3736C239.621 40.3736 245.426 43.381 248.284 49.0482L241.583 52.961C240.628 51.3533 239.266 50.0274 237.633 49.1186C236.001 48.2097 234.157 47.7502 232.289 47.787C225.83 47.787 220.986 52.2658 220.986 59.469C220.986 66.6722 225.879 71.151 232.289 71.151C234.157 71.1877 236.001 70.7283 237.633 69.8194C239.266 68.9105 240.628 67.5847 241.583 65.9769L248.284 69.8898C245.426 75.4923 239.621 78.6371 232.354 78.6371C220.55 78.6371 212.169 70.6659 212.169 59.469Z" fill="#1E3947"/>
<path d="M277.423 40.8587V49.1856C276.756 49.0546 276.077 48.9843 275.397 48.9754C268.76 48.9754 264.57 52.8964 264.57 60.52V78.6371H255.85V41.2791H264.166V46.736C266.661 42.8232 271.19 40.8587 277.423 40.8587Z" fill="#1E3947"/>
<path d="M321.298 40.794V78.1359H312.989V73.3823C310.196 76.8101 305.787 78.629 300.967 78.629C291.399 78.629 284.9 73.3823 284.9 62.1207V40.7859H293.636V60.9323C293.636 67.7151 296.866 70.9327 302.364 70.9327C308.444 70.9327 312.57 67.1573 312.57 59.6711V40.7859L321.298 40.794Z" fill="#1E3947"/>
<path d="M341.499 41.2791H332.763V78.6371H341.499V41.2791Z" fill="#1E3947"/>
<path d="M375.385 76.1229C373.286 77.7964 370.145 78.6371 366.996 78.6371C358.825 78.6371 354.142 74.3039 354.142 66.0497V48.07H347.998V41.0688H354.142V32.5398H362.878V41.0688H372.866V48.07H362.878V65.8557C362.878 69.4856 364.695 71.4501 368.046 71.4501C369.8 71.4892 371.516 70.94 372.923 69.8898L375.385 76.1229Z" fill="#1E3947"/>
<path d="M378.251 59.469C378.251 48.2802 386.632 40.3736 398.089 40.3736C409.692 40.3736 418 48.2802 418 59.469C418 70.6578 409.692 78.6371 398.089 78.6371C386.648 78.6371 378.251 70.6659 378.251 59.469ZM409.199 59.469C409.199 52.3304 404.452 47.787 398.089 47.787C391.727 47.787 387.052 52.3304 387.052 59.469C387.052 66.6075 391.8 71.151 398.089 71.151C404.379 71.151 409.199 66.6075 409.199 59.469Z" fill="#1E3947"/>
<path d="M337.131 17.4381L337.857 20.2677C338.232 21.7307 338.993 23.066 340.059 24.134C341.126 25.202 342.46 25.9636 343.921 26.339L346.739 27.0666L343.921 27.7942C342.46 28.1697 341.126 28.9312 340.059 29.9993C338.993 31.0673 338.232 32.4026 337.857 33.8656L337.131 36.6952L336.404 33.8656C336.026 32.4028 335.263 31.068 334.196 30.0003C333.128 28.9325 331.794 28.1708 330.332 27.7942L327.514 27.0666L330.332 26.339C331.794 25.9625 333.128 25.2007 334.196 24.133C335.263 23.0652 336.026 21.7305 336.404 20.2677L337.131 17.4381Z" fill="url(#paint0_linear_55_1438)"/>
<path d="M328.782 16.3709L329.024 17.3168C329.151 17.8094 329.408 18.259 329.767 18.6188C330.126 18.9785 330.575 19.2352 331.067 19.3622L332.012 19.6047L331.067 19.8553C330.575 19.9793 330.125 20.234 329.766 20.5926C329.406 20.9512 329.15 21.4003 329.024 21.8926L328.782 22.8465L328.54 21.8926C328.414 21.4003 328.158 20.9512 327.798 20.5926C327.439 20.234 326.989 19.9793 326.497 19.8553L325.544 19.6047L326.497 19.3622C326.989 19.2352 327.438 18.9785 327.797 18.6188C328.157 18.259 328.413 17.8094 328.54 17.3168L328.782 16.3709Z" fill="url(#paint1_linear_55_1438)"/>
<path d="M34.0967 21.545L34.4519 22.9436C34.638 23.6682 35.0148 24.3294 35.5431 24.8584C36.0714 25.3874 36.7319 25.7647 37.4555 25.951L38.8604 26.3148L37.4555 26.6786C36.7319 26.8649 36.0714 27.2422 35.5431 27.7712C35.0148 28.3001 34.638 28.9614 34.4519 29.686L34.0967 31.0846L33.7334 29.686C33.5473 28.9614 33.1705 28.3001 32.6422 27.7712C32.1139 27.2422 31.4534 26.8649 30.7298 26.6786L29.333 26.3148L30.7298 25.951C31.4534 25.7647 32.1139 25.3874 32.6422 24.8584C33.1705 24.3294 33.5473 23.6682 33.7334 22.9436L34.0967 21.545Z" fill="url(#paint2_linear_55_1438)"/>
<path d="M30.3582 20.9952L30.4793 21.4722C30.5436 21.7148 30.6708 21.9361 30.848 22.1136C31.0253 22.291 31.2463 22.4184 31.4886 22.4828L31.9568 22.604L31.4886 22.7253C31.2463 22.7896 31.0253 22.917 30.848 23.0945C30.6708 23.272 30.5436 23.4932 30.4793 23.7358L30.3582 24.2048L30.2371 23.7358C30.1728 23.4932 30.0456 23.272 29.8684 23.0945C29.6911 22.917 29.4701 22.7896 29.2278 22.7253L28.7515 22.604L29.2278 22.4828C29.4701 22.4184 29.6911 22.291 29.8684 22.1136C30.0456 21.9361 30.1728 21.7148 30.2371 21.4722L30.3582 20.9952Z" fill="url(#paint3_linear_55_1438)"/>
<path d="M46.2965 51.0208C52.1603 51.0208 56.9139 46.2611 56.9139 40.3898C56.9139 34.5184 52.1603 29.7588 46.2965 29.7588C40.4327 29.7588 35.6792 34.5184 35.6792 40.3898C35.6792 46.2611 40.4327 51.0208 46.2965 51.0208Z" fill="url(#paint4_linear_55_1438)"/>
<path d="M70.1067 54.7315C73.5491 54.7315 76.3398 51.9373 76.3398 48.4903C76.3398 45.0434 73.5491 42.2492 70.1067 42.2492C66.6642 42.2492 63.8735 45.0434 63.8735 48.4903C63.8735 51.9373 66.6642 54.7315 70.1067 54.7315Z" fill="#1E3947"/>
<path d="M22.696 54.7315C26.1385 54.7315 28.9292 51.9373 28.9292 48.4903C28.9292 45.0434 26.1385 42.2492 22.696 42.2492C19.2536 42.2492 16.4629 45.0434 16.4629 48.4903C16.4629 51.9373 19.2536 54.7315 22.696 54.7315Z" fill="#1E3947"/>
<path d="M62.4849 70.3668V85.7272H31.2546V70.3668C31.2546 66.2201 32.8998 62.2432 35.8282 59.311C38.7566 56.3788 42.7284 54.7315 46.8698 54.7315C48.9216 54.7298 50.9535 55.1339 52.849 55.9205C54.7444 56.7072 56.466 57.8609 57.915 59.3154C59.3667 60.7649 60.5178 62.4876 61.3021 64.3842C62.0864 66.2808 62.4884 68.314 62.4849 70.3668Z" fill="url(#paint5_linear_55_1438)"/>
<path d="M79.1657 73.3742C78.2908 74.4508 77.361 75.4816 76.3802 76.4624C73.4724 79.3791 70.1504 81.8499 66.5218 83.795V70.3749C66.5204 67.076 65.6872 63.8309 64.0996 60.9404C68.1557 60.9925 72.0303 62.632 74.8946 65.5081C75.7008 66.3133 76.4156 67.2053 77.0261 68.1678C78.0498 69.7584 78.7749 71.5228 79.1657 73.3742Z" fill="#1E3947"/>
<path d="M29.6155 60.9565C28.0321 63.8429 27.1992 67.0817 27.1933 70.3749V83.795C23.5667 81.8571 20.2472 79.3915 17.343 76.4786C16.0979 75.219 14.933 73.8824 13.855 72.4768C14.3386 70.6841 15.1429 68.9941 16.2287 67.4887C17.6715 65.4528 19.5823 63.7943 21.7998 62.6531C24.0173 61.512 26.4764 60.9218 28.9695 60.9323C29.1552 60.9323 29.3894 60.9403 29.6155 60.9565Z" fill="#1E3947"/>
<path d="M74.9188 18.8448L76.3802 17.3815C72.5067 13.4986 67.9063 10.4188 62.8425 8.31851C57.7786 6.21822 52.3507 5.13867 46.8696 5.14168C41.3894 5.1362 35.962 6.21465 30.8991 8.3151C25.8363 10.4156 21.2376 13.4967 17.3672 17.3815C13.4873 21.2569 10.4102 25.8615 8.31246 30.9309C6.21471 36.0003 5.13765 41.4347 5.14312 46.922C5.12799 56.1733 8.19356 65.1656 13.855 72.4768C14.9432 73.8761 16.1161 75.2071 17.3672 76.4624C20.2722 79.3788 23.5915 81.8497 27.2175 83.795C28.5294 84.4979 29.8769 85.132 31.2545 85.6948H31.311L31.4241 85.7352L32.078 83.7707L31.2706 85.6867C36.2218 87.6794 41.5093 88.7004 46.8454 88.6941C52.1814 88.6988 57.4686 87.6779 62.4202 85.6867C63.7971 85.1281 65.1445 84.4994 66.4572 83.8031C70.0853 81.8605 73.4072 79.3924 76.3156 76.4786C77.2964 75.4978 78.2262 74.467 79.1011 73.3904C85.2144 65.9318 88.5506 56.5788 88.5397 46.93C88.5431 41.4437 87.4659 36.0106 85.3697 30.9417C83.2736 25.8728 80.1995 21.2675 76.3237 17.3896L74.8623 18.8529L73.4009 20.3162C76.8936 23.8093 79.6635 27.9581 81.5519 32.5251C83.4404 37.092 84.4102 41.9872 84.4058 46.93C84.4188 55.62 81.4164 64.0445 75.9119 70.7629C75.1249 71.7289 74.2895 72.6544 73.409 73.5359C70.7902 76.1643 67.7973 78.3901 64.5275 80.1408C63.3438 80.7741 62.1284 81.3461 60.8861 81.8547C56.4339 83.6646 51.6748 84.5979 46.8696 84.6034C42.0618 84.5984 37.3 83.6651 32.8451 81.8547H32.7886L32.6755 81.8143L32.0215 83.795L32.8289 81.879C31.5866 81.3765 30.3736 80.8043 29.1956 80.1651C25.9248 78.4225 22.9315 76.2019 20.3142 73.5763C19.1807 72.4463 18.1208 71.2447 17.1411 69.9787C12.0465 63.3913 9.28555 55.294 9.29317 46.9624C9.29026 42.019 10.2615 37.1236 12.1513 32.5567C14.0411 27.9898 16.8123 23.8412 20.3061 20.3485L20.3626 20.3L20.3142 20.3485C23.7997 16.8466 27.9426 14.0695 32.5042 12.177C37.0658 10.2845 41.9562 9.314 46.8939 9.32134C51.8325 9.3156 56.7237 10.2868 61.2864 12.1792C65.8491 14.0715 69.9935 16.8478 73.4816 20.3485L74.9188 18.8448Z" fill="#1E3947"/>
<path d="M10.3994 75.0154C10.5259 74.8814 10.6029 74.7081 10.6176 74.5243C10.6323 74.3405 10.5838 74.1572 10.4801 74.0048C4.64468 66.186 1.4999 56.6828 1.51795 46.922C1.51115 40.9607 2.68022 35.0567 4.95808 29.5489C7.23594 24.0412 10.5777 19.0381 14.7916 14.8268L14.8562 14.7702C19.0584 10.5674 24.0463 7.23469 29.5351 4.96253C35.024 2.69038 40.9061 1.52329 46.8455 1.52796C52.8011 1.52114 58.6993 2.6925 64.2015 4.97472C69.7036 7.25695 74.7013 10.6051 78.9074 14.8268C83.1213 19.0381 86.4631 24.0412 88.741 29.5489C91.0188 35.0567 92.1879 40.9607 92.1811 46.922C92.1978 57.4019 88.5758 67.5617 81.9352 75.6621C80.9824 76.8262 79.9732 77.95 78.9074 79.0171C75.7472 82.1796 72.1399 84.86 68.2013 86.9722C66.7769 87.7332 65.3134 88.4186 63.8171 89.0256H63.7686C58.3794 91.1976 52.6226 92.3092 46.8132 92.2998C41.0227 92.3158 35.2831 91.218 29.9062 89.066C28.4226 88.463 26.9725 87.7802 25.5624 87.0207C24.4159 86.4063 23.2963 85.7461 22.2036 85.04C22.0587 84.9431 21.885 84.899 21.7115 84.9152C21.538 84.9314 21.3753 85.0069 21.2509 85.1289C21.176 85.2127 21.1195 85.3112 21.0848 85.4182C21.0501 85.5251 21.0381 85.6381 21.0495 85.7499C21.0609 85.8617 21.0954 85.97 21.151 86.0677C21.2065 86.1654 21.2818 86.2504 21.372 86.3174C22.4943 87.053 23.6569 87.7402 24.8357 88.3708C26.3072 89.1666 27.8221 89.8791 29.3733 90.5051H29.4298C34.9739 92.7357 40.8948 93.8775 46.8697 93.8682C52.8643 93.876 58.8045 92.7287 64.3661 90.4889C65.9149 89.8635 67.4295 89.1565 68.9037 88.3708C72.9779 86.1911 76.708 83.4206 79.9732 80.1489C81.0713 79.0495 82.1209 77.8853 83.1059 76.6807C89.9604 68.3141 93.7018 57.8244 93.6909 47.0028C93.6941 40.8453 92.4832 34.7477 90.1278 29.0598C87.7725 23.3718 84.3189 18.2054 79.9651 13.8567C75.6164 9.49359 70.4499 6.03349 64.7622 3.67499C59.0744 1.3165 52.9775 0.106054 46.8213 0.113191C40.6717 0.110492 34.5821 1.32311 28.9016 3.68151C23.221 6.0399 18.0611 9.4977 13.7178 13.8567C9.45462 18.1002 6.04727 23.1258 3.68179 28.6593C1.24414 34.4381 -0.00793614 40.6488 3.78488e-05 46.922C-0.00523484 57.0056 3.24617 66.8206 9.26901 74.9022C9.33802 74.984 9.42259 75.0514 9.51781 75.1002C9.61304 75.1491 9.71701 75.1785 9.82369 75.1868C9.93036 75.195 10.0376 75.182 10.1392 75.1484C10.2408 75.1148 10.3347 75.0613 10.4155 74.9911L10.3994 75.0154Z" fill="url(#paint6_linear_55_1438)"/>
<path d="M1.82866 89.3435L17.0265 74.126L21.7252 78.8308L6.52734 94.0482C5.90501 94.6713 5.06095 95.0214 4.18085 95.0214C3.30075 95.0214 2.45669 94.6713 1.83437 94.0482C1.52499 93.7399 1.2794 93.3736 1.11163 92.9701C0.943872 92.5667 0.857252 92.1341 0.856721 91.697C0.856191 91.26 0.941764 90.8272 1.10855 90.4233C1.27533 90.0195 1.52004 89.6525 1.82866 89.3435Z" fill="#0B1928"/>
<path d="M1.82866 89.3435L17.0265 74.126L21.7252 78.8308L6.52734 94.0482C5.90501 94.6713 5.06095 95.0214 4.18085 95.0214C3.30075 95.0214 2.45669 94.6713 1.83437 94.0482C1.52499 93.7399 1.2794 93.3736 1.11163 92.9701C0.943872 92.5667 0.857252 92.1341 0.856721 91.697C0.856191 91.26 0.941764 90.8272 1.10855 90.4233C1.27533 90.0195 1.52004 89.6525 1.82866 89.3435Z" fill="#1E3947"/>
</g>
<defs>
<linearGradient id="paint0_linear_55_1438" x1="327.514" y1="27.0666" x2="346.739" y2="27.0666" gradientUnits="userSpaceOnUse">
<stop stop-color="#2974E9"/>
<stop offset="1" stop-color="#1AD7BE"/>
</linearGradient>
<linearGradient id="paint1_linear_55_1438" x1="325.544" y1="19.6047" x2="332.012" y2="19.6047" gradientUnits="userSpaceOnUse">
<stop stop-color="#2974E9"/>
<stop offset="1" stop-color="#1AD7BE"/>
</linearGradient>
<linearGradient id="paint2_linear_55_1438" x1="29.333" y1="26.2986" x2="38.8604" y2="26.2986" gradientUnits="userSpaceOnUse">
<stop stop-color="#2974E9"/>
<stop offset="1" stop-color="#1AD7BE"/>
</linearGradient>
<linearGradient id="paint3_linear_55_1438" x1="28.7515" y1="22.604" x2="31.9568" y2="22.604" gradientUnits="userSpaceOnUse">
<stop stop-color="#2974E9"/>
<stop offset="1" stop-color="#1AD7BE"/>
</linearGradient>
<linearGradient id="paint4_linear_55_1438" x1="35.6792" y1="40.3898" x2="56.9139" y2="40.3898" gradientUnits="userSpaceOnUse">
<stop stop-color="#2974E9"/>
<stop offset="1" stop-color="#1AD7BE"/>
</linearGradient>
<linearGradient id="paint5_linear_55_1438" x1="31.2546" y1="70.2132" x2="62.4849" y2="70.2132" gradientUnits="userSpaceOnUse">
<stop stop-color="#2974E9"/>
<stop offset="1" stop-color="#1AD7BE"/>
</linearGradient>
<linearGradient id="paint6_linear_55_1438" x1="3.78488e-05" y1="46.922" x2="93.7232" y2="46.922" gradientUnits="userSpaceOnUse">
<stop stop-color="#2974E9"/>
<stop offset="1" stop-color="#1AD7BE"/>
</linearGradient>
<clipPath id="clip0_55_1438">
<rect width="418" height="95" rx="30" fill="white"/>
</clipPath>
</defs>
</svg>
