<svg width="41" height="41" viewBox="0 0 41 41" fill="none" xmlns="http://www.w3.org/2000/svg">
<g clip-path="url(#clip0_55_1388)">
<path d="M14.9125 9.2915L15.0715 9.89511C15.1525 10.208 15.3172 10.4936 15.5484 10.7219C15.7796 10.9503 16.0687 11.113 16.3854 11.193L16.9964 11.35L16.3854 11.5036C16.0684 11.5842 15.7792 11.7476 15.548 11.9766C15.3169 12.2055 15.1523 12.4916 15.0715 12.805L14.9125 13.4086L14.7536 12.805C14.6728 12.4916 14.5082 12.2055 14.277 11.9766C14.0458 11.7476 13.7566 11.5842 13.4397 11.5036L12.8286 11.35L13.4397 11.193C13.7564 11.113 14.0455 10.9503 14.2766 10.7219C14.5078 10.4936 14.6725 10.208 14.7536 9.89511L14.9125 9.2915Z" fill="white"/>
<path d="M13.2768 9.06104L13.3297 9.26689C13.3578 9.37159 13.4135 9.46709 13.491 9.54368C13.5686 9.62028 13.6652 9.67525 13.7712 9.70302L13.9796 9.75536L13.7712 9.80769C13.6652 9.83546 13.5686 9.89044 13.491 9.96703C13.4135 10.0436 13.3578 10.1391 13.3297 10.2438L13.2768 10.4462L13.2308 10.2334C13.2027 10.1287 13.1471 10.0332 13.0695 9.95657C12.992 9.87997 12.8953 9.825 12.7893 9.79723L12.5845 9.74489L12.7893 9.69256C12.8953 9.66479 12.992 9.60981 13.0695 9.53322C13.1471 9.45662 13.2027 9.36113 13.2308 9.25642L13.2768 9.06104Z" fill="white"/>
<path d="M20.2526 22.0195C22.8177 22.0195 24.8972 19.9653 24.8972 17.4314C24.8972 14.8974 22.8177 12.8433 20.2526 12.8433C17.6874 12.8433 15.6079 14.8974 15.6079 17.4314C15.6079 19.9653 17.6874 22.0195 20.2526 22.0195Z" fill="white"/>
<path d="M30.6686 23.621C32.1746 23.621 33.3954 22.4151 33.3954 20.9274C33.3954 19.4398 32.1746 18.2339 30.6686 18.2339C29.1627 18.2339 27.9419 19.4398 27.9419 20.9274C27.9419 22.4151 29.1627 23.621 30.6686 23.621Z" fill="white"/>
<path d="M9.9284 23.621C11.4343 23.621 12.6551 22.4151 12.6551 20.9274C12.6551 19.4398 11.4343 18.2339 9.9284 18.2339C8.42246 18.2339 7.20166 19.4398 7.20166 20.9274C7.20166 22.4151 8.42246 23.621 9.9284 23.621Z" fill="white"/>
<path d="M27.3309 30.369V36.9982H13.6689V30.369C13.6689 28.5793 14.3886 26.863 15.6697 25.5975C16.9507 24.3321 18.6882 23.6211 20.4999 23.6211C21.3965 23.6186 22.2848 23.7908 23.1139 24.1278C23.943 24.4649 24.6967 24.9602 25.3318 25.5855C25.9685 26.2127 26.473 26.9584 26.8162 27.7795C27.1593 28.6006 27.3343 29.4807 27.3309 30.369Z" fill="white"/>
<path d="M34.6284 31.667C34.2456 32.1316 33.8389 32.5765 33.4098 32.9998C32.1376 34.2573 30.6844 35.3225 29.0972 36.1609V30.3725C29.0966 28.9488 28.7321 27.5483 28.0376 26.3008C29.812 26.3233 31.507 27.0308 32.7599 28.2721C33.1215 28.6194 33.4425 29.0056 33.7171 29.4235C34.1559 30.1106 34.4646 30.8708 34.6284 31.667Z" fill="white"/>
<path d="M12.952 26.3077C12.2594 27.5534 11.895 28.9512 11.8924 30.3725V36.1574C10.3059 35.321 8.85378 34.2569 7.58331 32.9997C7.03513 32.4576 6.52198 31.8819 6.04688 31.2761C6.25844 30.5025 6.61027 29.7731 7.0853 29.1234C7.71512 28.2478 8.54835 27.5342 9.51508 27.0424C10.4818 26.5507 11.5538 26.2951 12.6412 26.2973C12.7507 26.2833 12.8531 26.3007 12.952 26.3077Z" fill="white"/>
<path d="M32.7705 8.13992L33.4098 7.5084C31.7175 5.82853 29.7058 4.49554 27.4903 3.58602C25.2749 2.67649 22.8993 2.20836 20.5002 2.20851C18.0996 2.2053 15.7221 2.67131 13.5047 3.57971C11.2873 4.48811 9.27368 5.82094 7.57996 7.50142C5.88269 9.17397 4.53657 11.1612 3.61889 13.3491C2.70121 15.5369 2.23005 17.8823 2.23244 20.2505C2.22661 24.242 3.56762 28.1215 6.04352 31.2759C6.51955 31.8798 7.03266 32.4542 7.57996 32.996C8.85043 34.2532 10.3026 35.3173 11.8891 36.1536C12.4629 36.4571 13.0524 36.7308 13.6551 36.9736H13.6833H13.7293L14.0153 36.1292L13.6798 36.9561C15.8445 37.8161 18.1564 38.2567 20.4896 38.254C22.8239 38.2564 25.1369 37.8158 27.3029 36.9561C27.9062 36.716 28.4958 36.4434 29.0689 36.1397C30.6561 35.3013 32.1093 34.2361 33.3816 32.9786C33.8118 32.554 34.2196 32.108 34.6037 31.6423C37.2775 28.4246 38.7358 24.3889 38.7291 20.226C38.7314 17.8582 38.2605 15.5131 37.3434 13.3254C36.4264 11.1376 35.0813 9.15018 33.3851 7.477L32.7458 8.10852L32.1065 8.74004C33.635 10.2471 34.8472 12.0376 35.6733 14.0087C36.4995 15.9798 36.9234 18.0927 36.9207 20.226C36.9282 23.9767 35.6145 27.6131 33.205 30.5118C32.8617 30.9296 32.4962 31.329 32.11 31.7086C30.9639 32.8424 29.6547 33.8029 28.2248 34.5591C27.7157 34.8416 27.191 35.0956 26.653 35.3197C24.7014 36.0941 22.6174 36.4909 20.5143 36.4886C18.4123 36.4912 16.3294 36.0944 14.3792 35.3197H14.3544H14.3085L14.0224 36.1676L14.3756 35.3407C13.8331 35.1217 13.3026 34.8748 12.7862 34.601C11.356 33.848 10.0466 32.8897 8.90095 31.7574C8.40624 31.2697 7.94376 30.7511 7.51639 30.2048C5.26916 27.3614 4.04835 23.8577 4.04791 20.2505C4.0449 18.1168 4.469 16.0035 5.29581 14.0323C6.12262 12.0611 7.33582 10.2708 8.86562 8.76446C10.3905 7.25327 12.2028 6.05484 14.1983 5.23809C16.1938 4.42134 18.3331 4.00241 20.4931 4.00538C22.6536 4.0029 24.7932 4.42205 26.7892 5.23876C28.7852 6.05547 30.5983 7.25363 32.1242 8.76446L32.7705 8.13992Z" fill="white"/>
<path d="M4.55289 32.375C4.61208 32.3194 4.64842 32.2441 4.65493 32.1636C4.66145 32.0831 4.63769 32.0031 4.58821 31.9389C2.03786 28.5634 0.663526 24.4625 0.671172 20.2505C0.667728 17.6771 1.17892 15.1285 2.17541 12.7508C3.17189 10.3731 4.63403 8.21334 6.47786 6.39544L6.50611 6.37101C8.34437 4.55714 10.5264 3.11882 12.9275 2.13821C15.3286 1.1576 17.9018 0.653911 20.5001 0.655929C23.1054 0.652985 25.6856 1.15851 28.0926 2.14347C30.4996 3.12843 32.6858 4.57342 34.5258 6.39544C36.3692 8.21292 37.8311 10.3722 38.8276 12.7492C39.8241 15.1262 40.3355 17.6742 40.3325 20.247C40.3367 24.7728 38.7471 29.1592 35.8362 32.6541C35.4194 33.1566 34.9779 33.6415 34.5117 34.1021C33.1303 35.4667 31.5535 36.6235 29.8317 37.5353C29.2086 37.8638 28.5684 38.1596 27.9138 38.4216H27.8927C25.5351 39.3589 23.0167 39.8387 20.4754 39.8346C17.9423 39.8416 15.4314 39.3678 13.0793 38.439C12.4302 38.1788 11.7959 37.8841 11.179 37.5563C10.6739 37.2911 10.1865 37.005 9.70968 36.698C9.64478 36.6601 9.56931 36.6437 9.49433 36.6513C9.41934 36.6588 9.34876 36.6898 9.2929 36.7398C9.25997 36.7758 9.23498 36.8181 9.21953 36.8641C9.20407 36.9101 9.1985 36.9588 9.20315 37.0071C9.20781 37.0553 9.22258 37.1021 9.24655 37.1444C9.27052 37.1867 9.30314 37.2236 9.34235 37.2527C9.8333 37.5702 10.3419 37.8633 10.8611 38.1389C11.5049 38.4824 12.1676 38.7899 12.8461 39.0601H12.8709C15.2962 40.0228 17.8863 40.5155 20.5001 40.5115C23.1225 40.5149 25.721 40.0197 28.154 39.0531H28.1717C28.8492 38.7832 29.5118 38.478 30.1567 38.1389C31.939 37.1983 33.5707 36.0025 34.9991 34.5906C35.4795 34.1161 35.9387 33.6136 36.3696 33.0938C39.3681 29.4829 41.0048 24.9558 41.0001 20.2854C41.0015 17.628 40.4718 14.9964 39.4414 12.5416C38.411 10.0868 36.9002 7.85703 34.9956 5.98024C33.0953 4.09929 30.8381 2.60718 28.3531 1.58937C25.8681 0.571555 23.2043 0.0480464 20.5142 0.0488301C17.824 0.0476653 15.1601 0.571001 12.6751 1.58883C10.1901 2.60667 7.93285 4.09899 6.03282 5.98024C4.16132 7.82576 2.66925 10.0118 1.63895 12.4176C0.572578 14.9116 0.0248486 17.592 0.0283369 20.2994C0.0241882 24.6342 1.43361 28.855 4.04781 32.3366C4.078 32.372 4.11499 32.401 4.15665 32.4221C4.1983 32.4432 4.24379 32.4559 4.29045 32.4595C4.33712 32.463 4.38404 32.4574 4.42849 32.4429C4.47293 32.4284 4.51402 32.4053 4.54936 32.375H4.55289Z" fill="white"/>
<path d="M0.808988 38.5484L7.43994 31.9982L9.49541 34.0286L2.85447 40.5888C2.71967 40.7219 2.55964 40.8276 2.38351 40.8996C2.20739 40.9717 2.01862 41.0088 1.82798 41.0088C1.63735 41.0088 1.44858 40.9717 1.27245 40.8996C1.09633 40.8276 0.936296 40.7219 0.801496 40.5888C0.665304 40.4549 0.557368 40.2957 0.483946 40.1203C0.410523 39.9449 0.373075 39.7569 0.373772 39.5671C0.374468 39.3773 0.413296 39.1895 0.488004 39.0147C0.562713 38.8398 0.671816 38.6813 0.808988 38.5484Z" fill="white"/>
<path d="M0.808988 38.5484L7.43994 31.9982L9.49541 34.0286L2.85447 40.5888C2.71967 40.7219 2.55964 40.8276 2.38351 40.8996C2.20739 40.9717 2.01862 41.0088 1.82798 41.0088C1.63735 41.0088 1.44858 40.9717 1.27245 40.8996C1.09633 40.8276 0.936296 40.7219 0.801496 40.5888C0.665304 40.4549 0.557368 40.2957 0.483946 40.1203C0.410523 39.9449 0.373075 39.7569 0.373772 39.5671C0.374468 39.3773 0.413296 39.1895 0.488004 39.0147C0.562713 38.8398 0.671816 38.6813 0.808988 38.5484Z" fill="white"/>
</g>
<defs>
<clipPath id="clip0_55_1388">
<rect width="41" height="41" fill="white"/>
</clipPath>
</defs>
</svg>
